HIERARCHY
ROOT mixamorig:Hips
{
	OFFSET 0.000000 201.639420 0.000000
	CHANNELS 6 Xposition Yposition Zposition Xrotation Yrotation Zrotation
	JOINT mixamorig:Spine
	{
		OFFSET 0.006200 19.524994 -2.481800
		CHANNELS 3 Xrotation Yrotation Zrotation
		JOINT mixamorig:Spine1
		{
			OFFSET -0.000900 22.835007 -2.825400
			CHANNELS 3 Xrotation Yrotation Zrotation
			JOINT mixamorig:Spine2
			{
				OFFSET -0.020600 26.552490 -3.193300
				CHANNELS 3 Xrotation Yrotation Zrotation
				JOINT mixamorig:Neck
				{
					OFFSET -0.060000 30.701813 1.352200
					CHANNELS 3 Xrotation Yrotation Zrotation
					JOINT mixamorig:Head
					{
						OFFSET -0.087200 22.547607 3.670900
						CHANNELS 3 Xrotation Yrotation Zrotation
						JOINT mixamorig:HeadTop_End
						{
							OFFSET -0.830600 40.355194 7.893500
							CHANNELS 3 Xrotation Yrotation Zrotation
							End Site
							{
								OFFSET 0.000000 30.592346 0.000000
							}
						}
						JOINT mixamorig:RightEye
						{
							OFFSET -6.302100 18.118591 16.197100
							CHANNELS 3 Xrotation Yrotation Zrotation
							End Site
							{
								OFFSET 0.000000 30.592346 0.000000
							}
						}
						JOINT mixamorig:LeftEye
						{
							OFFSET 6.741500 18.382690 16.401899
							CHANNELS 3 Xrotation Yrotation Zrotation
							End Site
							{
								OFFSET 0.000000 30.592346 0.000000
							}
						}
					}
				}
				JOINT mixamorig:LeftShoulder
				{
					OFFSET 11.924900 18.230499 1.425400
					CHANNELS 3 Xrotation Yrotation Zrotation
					JOINT mixamorig:LeftArm
					{
						OFFSET 25.435989 -0.697632 -5.229300
						CHANNELS 3 Xrotation Yrotation Zrotation
						JOINT mixamorig:LeftForeArm
						{
							OFFSET 54.684776 0.000000 0.000000
							CHANNELS 3 Xrotation Yrotation Zrotation
							JOINT mixamorig:LeftHand
							{
								OFFSET 55.098175 0.000000 0.000000
								CHANNELS 3 Xrotation Yrotation Zrotation
								JOINT mixamorig:LeftHandMiddle1
								{
									OFFSET 23.369751 0.000000 0.000000
									CHANNELS 3 Xrotation Yrotation Zrotation
									JOINT mixamorig:LeftHandMiddle2
									{
										OFFSET 6.378677 0.000000 0.000000
										CHANNELS 3 Xrotation Yrotation Zrotation
										JOINT mixamorig:LeftHandMiddle3
										{
											OFFSET 6.148331 0.000000 0.000000
											CHANNELS 3 Xrotation Yrotation Zrotation
											JOINT mixamorig:LeftHandMiddle4
											{
												OFFSET 6.582504 0.000000 0.000000
												CHANNELS 3 Xrotation Yrotation Zrotation
												End Site
												{
													OFFSET -1.168900 6.395691 1.028606
												}
											}
										}
									}
								}
								JOINT mixamorig:LeftHandThumb1
								{
									OFFSET 7.235672 -3.848206 5.434273
									CHANNELS 3 Xrotation Yrotation Zrotation
									JOINT mixamorig:LeftHandThumb2
									{
										OFFSET 6.568451 -3.792297 3.792300
										CHANNELS 3 Xrotation Yrotation Zrotation
										JOINT mixamorig:LeftHandThumb3
										{
											OFFSET 6.063080 -3.500519 3.500518
											CHANNELS 3 Xrotation Yrotation Zrotation
											JOINT mixamorig:LeftHandThumb4
											{
												OFFSET 4.793182 -2.767334 2.767349
												CHANNELS 3 Xrotation Yrotation Zrotation
												End Site
												{
													OFFSET 0.101639 6.054260 1.275483
												}
											}
										}
									}
								}
								JOINT mixamorig:LeftHandIndex1
								{
									OFFSET 23.101074 -0.309540 4.992809
									CHANNELS 3 Xrotation Yrotation Zrotation
									JOINT mixamorig:LeftHandIndex2
									{
										OFFSET 6.226883 0.000000 0.000000
										CHANNELS 3 Xrotation Yrotation Zrotation
										JOINT mixamorig:LeftHandIndex3
										{
											OFFSET 6.094330 0.000000 0.000000
											CHANNELS 3 Xrotation Yrotation Zrotation
											JOINT mixamorig:LeftHandIndex4
											{
												OFFSET 5.482605 0.000000 0.000000
												CHANNELS 3 Xrotation Yrotation Zrotation
												End Site
												{
													OFFSET -1.427902 5.233032 0.797164
												}
											}
										}
									}
								}
								JOINT mixamorig:LeftHandRing1
								{
									OFFSET 22.299240 0.021149 -3.964172
									CHANNELS 3 Xrotation Yrotation Zrotation
									JOINT mixamorig:LeftHandRing2
									{
										OFFSET 6.321869 0.000000 0.000000
										CHANNELS 3 Xrotation Yrotation Zrotation
										JOINT mixamorig:LeftHandRing3
										{
											OFFSET 5.899796 0.000000 0.000000
											CHANNELS 3 Xrotation Yrotation Zrotation
											JOINT mixamorig:LeftHandRing4
											{
												OFFSET 6.517899 0.000000 0.000000
												CHANNELS 3 Xrotation Yrotation Zrotation
												End Site
												{
													OFFSET -1.637299 6.232208 0.980890
												}
											}
										}
									}
								}
								JOINT mixamorig:LeftHandPinky1
								{
									OFFSET 20.463791 -0.302338 -8.562233
									CHANNELS 3 Xrotation Yrotation Zrotation
									JOINT mixamorig:LeftHandPinky2
									{
										OFFSET 6.908646 0.000000 0.000000
										CHANNELS 3 Xrotation Yrotation Zrotation
										JOINT mixamorig:LeftHandPinky3
										{
											OFFSET 4.622849 0.000000 0.000000
											CHANNELS 3 Xrotation Yrotation Zrotation
											JOINT mixamorig:LeftHandPinky4
											{
												OFFSET 5.216080 0.000000 0.000000
												CHANNELS 3 Xrotation Yrotation Zrotation
												End Site
												{
													OFFSET -0.606308 5.116241 0.814926
												}
											}
										}
									}
								}
							}
						}
					}
				}
				JOINT mixamorig:RightShoulder
				{
					OFFSET -12.001300 18.284088 1.348900
					CHANNELS 3 Xrotation Yrotation Zrotation
					JOINT mixamorig:RightArm
					{
						OFFSET -25.308500 -0.751312 -5.164599
						CHANNELS 3 Xrotation Yrotation Zrotation
						JOINT mixamorig:RightForeArm
						{
							OFFSET -54.684429 0.000000 0.000000
							CHANNELS 3 Xrotation Yrotation Zrotation
							JOINT mixamorig:RightHand
							{
								OFFSET -55.150291 0.000000 0.000000
								CHANNELS 3 Xrotation Yrotation Zrotation
								JOINT mixamorig:RightHandMiddle1
								{
									OFFSET -23.317566 0.000000 0.000000
									CHANNELS 3 Xrotation Yrotation Zrotation
									JOINT mixamorig:RightHandMiddle2
									{
										OFFSET -6.378403 0.000000 0.000000
										CHANNELS 3 Xrotation Yrotation Zrotation
										JOINT mixamorig:RightHandMiddle3
										{
											OFFSET -6.148193 0.000000 0.000000
											CHANNELS 3 Xrotation Yrotation Zrotation
											JOINT mixamorig:RightHandMiddle4
											{
												OFFSET -6.583389 0.000000 0.000000
												CHANNELS 3 Xrotation Yrotation Zrotation
												End Site
												{
													OFFSET 1.171692 6.395905 1.029786
												}
											}
										}
									}
								}
								JOINT mixamorig:RightHandThumb1
								{
									OFFSET -7.190521 -3.860474 5.435846
									CHANNELS 3 Xrotation Yrotation Zrotation
									JOINT mixamorig:RightHandThumb2
									{
										OFFSET -6.567429 -3.791718 3.791708
										CHANNELS 3 Xrotation Yrotation Zrotation
										JOINT mixamorig:RightHandThumb3
										{
											OFFSET -6.062469 -3.500153 3.500166
											CHANNELS 3 Xrotation Yrotation Zrotation
											JOINT mixamorig:RightHandThumb4
											{
												OFFSET -4.792618 -2.767029 2.767022
												CHANNELS 3 Xrotation Yrotation Zrotation
												End Site
												{
													OFFSET -0.100327 6.053253 1.276754
												}
											}
										}
									}
								}
								JOINT mixamorig:RightHandIndex1
								{
									OFFSET -23.048981 -0.310791 4.992554
									CHANNELS 3 Xrotation Yrotation Zrotation
									JOINT mixamorig:RightHandIndex2
									{
										OFFSET -6.227539 0.000000 0.000000
										CHANNELS 3 Xrotation Yrotation Zrotation
										JOINT mixamorig:RightHandIndex3
										{
											OFFSET -6.095047 0.000000 0.000000
											CHANNELS 3 Xrotation Yrotation Zrotation
											JOINT mixamorig:RightHandIndex4
											{
												OFFSET -5.484772 0.000000 0.000000
												CHANNELS 3 Xrotation Yrotation Zrotation
												End Site
												{
													OFFSET 1.420593 5.237305 0.797056
												}
											}
										}
									}
								}
								JOINT mixamorig:RightHandRing1
								{
									OFFSET -22.246323 0.020569 -3.963762
									CHANNELS 3 Xrotation Yrotation Zrotation
									JOINT mixamorig:RightHandRing2
									{
										OFFSET -6.322128 0.000000 0.000000
										CHANNELS 3 Xrotation Yrotation Zrotation
										JOINT mixamorig:RightHandRing3
										{
											OFFSET -5.900024 0.000000 0.000000
											CHANNELS 3 Xrotation Yrotation Zrotation
											JOINT mixamorig:RightHandRing4
											{
												OFFSET -6.518356 0.000000 0.000000
												CHANNELS 3 Xrotation Yrotation Zrotation
												End Site
												{
													OFFSET 1.636398 6.232697 0.982186
												}
											}
										}
									}
								}
								JOINT mixamorig:RightHandPinky1
								{
									OFFSET -20.411011 -0.303314 -8.561701
									CHANNELS 3 Xrotation Yrotation Zrotation
									JOINT mixamorig:RightHandPinky2
									{
										OFFSET -6.907349 0.000000 0.000000
										CHANNELS 3 Xrotation Yrotation Zrotation
										JOINT mixamorig:RightHandPinky3
										{
											OFFSET -4.623840 0.000000 0.000000
											CHANNELS 3 Xrotation Yrotation Zrotation
											JOINT mixamorig:RightHandPinky4
											{
												OFFSET -5.218353 0.000000 0.000000
												CHANNELS 3 Xrotation Yrotation Zrotation
												End Site
												{
													OFFSET 0.602097 5.118835 0.816273
												}
											}
										}
									}
								}
							}
						}
					}
				}
			}
		}
	}
	JOINT mixamorig:LeftUpLeg
	{
		OFFSET 18.168400 -13.561905 -0.039000
		CHANNELS 3 Xrotation Yrotation Zrotation
		JOINT mixamorig:LeftLeg
		{
			OFFSET 0.577358 -80.825211 -3.695000
			CHANNELS 3 Xrotation Yrotation Zrotation
			JOINT mixamorig:LeftFoot
			{
				OFFSET -0.577356 -83.370262 -6.520700
				CHANNELS 3 Xrotation Yrotation Zrotation
				JOINT mixamorig:LeftToeBase
				{
					OFFSET 0.750401 -20.798306 25.135401
					CHANNELS 3 Xrotation Yrotation Zrotation
					JOINT mixamorig:LeftToe_End
					{
						OFFSET -0.000500 0.001200 19.917799
						CHANNELS 3 Xrotation Yrotation Zrotation
						End Site
						{
							OFFSET 0.000000 19.917805 0.000000
						}
					}
				}
			}
		}
	}
	JOINT mixamorig:RightUpLeg
	{
		OFFSET -18.162500 -13.585098 -0.041000
		CHANNELS 3 Xrotation Yrotation Zrotation
		JOINT mixamorig:RightLeg
		{
			OFFSET -0.595024 -80.945297 -3.631900
			CHANNELS 3 Xrotation Yrotation Zrotation
			JOINT mixamorig:RightFoot
			{
				OFFSET 0.595024 -83.218193 -6.561200
				CHANNELS 3 Xrotation Yrotation Zrotation
				JOINT mixamorig:RightToeBase
				{
					OFFSET -0.753601 -20.807106 25.115000
					CHANNELS 3 Xrotation Yrotation Zrotation
					JOINT mixamorig:RightToe_End
					{
						OFFSET 0.000299 0.001700 19.918200
						CHANNELS 3 Xrotation Yrotation Zrotation
						End Site
						{
							OFFSET 0.000000 19.918203 0.000000
						}
					}
				}
			}
		}
	}
}
MOTION
Frames: 5
Frame Time: 0.033333
-9.655304 179.561539 -2.214785 -28.532203 -64.904706 -29.498228 11.028958 -11.434567 3.318362 3.749818 -1.522110 -5.380274 3.634272 -1.651900 -5.418061 2.004394 -3.146585 7.234846 -2.326371 -8.407778 2.355782 -0.000001 0.000000 0.000000 -0.000001 0.000000 0.000000 -0.000001 0.000000 0.000000 1.093640 -8.760775 0.981920 -38.754046 -42.850380 -79.065232 -0.000017 -49.036807 -0.000017 28.317773 13.361430 27.307344 0.018376 -0.503721 4.180669 0.022971 0.563118 -4.671523 0.012245 0.411407 -3.411140 -0.000001 -0.000000 0.000000 -2.107832 4.876223 12.292411 4.685179 17.127446 1.425242 -0.579466 1.574999 2.538713 0.000002 0.000000 0.000001 0.122719 -1.296808 10.811707 -0.000000 0.000015 -0.000112 0.009254 -0.357487 2.963641 -0.000001 0.000000 -0.000000 0.018108 0.500185 -4.142013 0.115289 1.257291 -10.478323 0.135796 1.363418 -11.374486 -0.000005 -0.000000 0.000002 0.866166 5.280971 -10.321301 0.237957 -2.251312 -15.631511 0.329026 2.107029 -17.749992 -0.000001 0.000002 0.000001 2.283533 33.944613 3.601639 -41.223880 -9.219781 40.117611 0.000037 84.614931 -0.000032 26.326737 -25.731471 -10.582681 0.214800 -1.718251 14.250035 0.256152 -1.873506 15.569677 0.110596 -1.237709 10.211728 0.000000 0.000000 -0.000001 -2.032679 -12.088986 -7.927931 5.749312 -21.267908 -1.054428 -1.273759 0.137307 -2.094880 0.000001 0.000004 0.000004 0.129248 -1.337046 11.041540 0.144288 -1.412018 11.669398 0.033852 -0.686763 5.644717 -0.000000 -0.000001 -0.000001 0.351580 -2.187060 18.262597 0.439744 -2.437844 20.447409 0.267866 -1.915026 15.924070 0.000000 0.000002 -0.000003 0.484482 -2.554512 21.474574 0.620821 -2.876712 24.351658 0.441918 -2.443643 20.498349 -0.000001 -0.000000 0.000000 -0.403365 31.350985 23.515508 46.991561 10.604207 -7.554427 -30.122026 15.078266 -14.535121 -0.188078 -0.000000 -0.000005 0.000000 0.000000 0.000000 -32.670229 -1.907821 1.662899 51.311892 5.760902 -3.380362 -6.974917 0.580867 -3.598350 -1.700372 -0.000038 0.000002 0.000001 -0.000002 0.000001 
-8.926987 180.400772 -2.535719 -27.487171 -63.485850 -28.981541 10.713766 -12.218137 2.301575 3.658079 -1.643791 -3.818137 3.569148 -1.730879 -3.861022 3.674894 -2.452202 5.582451 -2.557256 -7.916158 2.981314 -0.000000 0.000000 -0.000000 -0.000000 0.000000 -0.000000 -0.000000 0.000000 -0.000000 1.081143 -8.678700 0.821060 -40.367094 -39.752896 -81.244991 0.000010 -47.124234 -0.000003 31.399933 25.963499 16.220497 0.036712 -0.711550 5.910578 0.011451 0.397837 -3.298496 0.001817 0.158042 -1.309701 -0.000002 0.000001 0.000001 -2.107833 4.876223 12.292411 4.685179 17.127449 1.425240 -0.579467 1.574999 2.538714 0.000001 0.000001 0.000000 0.148244 -1.423907 11.886510 0.000008 0.004037 -0.033478 0.021552 -0.545481 4.524883 0.000001 0.000000 -0.000001 0.002708 0.193184 -1.592792 0.056746 0.884016 -7.345952 0.077703 1.033630 -8.598204 -0.000003 -0.000001 0.000001 0.579279 4.934896 -7.099205 0.111289 -2.783918 -11.099582 0.218100 1.722618 -14.430605 -0.000001 -0.000002 0.000001 2.247595 35.504242 4.075943 -34.122348 -7.879148 46.003308 -0.000042 84.799134 0.000022 33.963204 -24.542162 -18.857206 0.171730 -1.538835 12.734750 0.253462 -1.863816 15.487063 0.108182 -1.224257 10.099577 0.000001 -0.000000 -0.000000 -2.032676 -12.088986 -7.927933 5.749305 -21.267910 -1.054434 -1.273758 0.137313 -2.094872 0.000001 0.000000 -0.000000 0.089969 -1.117129 9.207501 0.131501 -1.348620 11.138387 0.025753 -0.599089 4.922131 -0.000001 0.000001 -0.000002 0.310225 -2.057597 17.145889 0.460321 -2.492320 20.926100 0.290074 -1.991146 16.575498 0.000001 0.000001 0.000000 0.449563 -2.463989 20.676989 0.668257 -2.979149 25.280192 0.497344 -2.586959 21.761553 -0.000001 0.000002 -0.000002 -1.750326 31.758491 24.694935 46.704174 10.353678 -6.294944 -29.552446 14.046096 -14.549123 -0.374819 -0.000004 0.000011 0.000000 -0.000000 -0.000000 -31.396433 -1.163881 1.816785 49.291194 5.382306 -2.745733 -6.164571 0.520938 -2.524691 -1.664689 -0.000009 0.000003 0.000000 -0.000002 0.000000 
-8.121029 181.287628 -2.864028 -26.797361 -62.359716 -28.765308 10.243708 -12.780026 1.115392 3.688807 -1.731868 -2.278654 3.632608 -1.779436 -2.328551 5.597528 -1.873919 4.050306 -2.942227 -7.456561 3.495696 -0.000000 -0.000000 0.000000 -0.000000 -0.000000 0.000000 -0.000000 -0.000000 0.000000 1.060220 -8.570233 0.609094 -41.470252 -37.563267 -78.505177 -0.000040 -51.145416 -0.000019 38.420203 33.027841 -6.303069 0.041302 -0.754594 6.268985 0.005443 0.274424 -2.274590 0.000016 -0.013131 0.108845 0.000002 0.000001 0.000001 -2.107834 4.876222 12.292412 4.685177 17.127444 1.425241 -0.579467 1.574996 2.538714 0.000001 -0.000003 -0.000000 0.138697 -1.377764 11.495856 -0.000005 0.000005 -0.000052 0.032062 -0.665126 5.520299 -0.000003 -0.000003 -0.000002 0.000094 0.036904 -0.298488 0.027213 0.612797 -5.084722 0.046502 0.800504 -6.648608 -0.000001 0.000001 -0.000000 0.406774 4.705744 -5.046819 0.046636 -3.170736 -7.852899 0.152429 1.443663 -12.053911 -0.000002 -0.000001 0.000003 2.079095 36.097037 4.751013 -24.414626 -1.495405 50.852644 0.000010 82.024534 -0.000036 35.776924 -24.640421 -26.335809 0.118217 -1.279308 10.558943 0.207855 -1.690707 14.016687 0.069641 -0.983663 8.099320 -0.000001 -0.000000 0.000001 -2.032679 -12.088984 -7.927932 5.749308 -21.267905 -1.054424 -1.273763 0.137312 -2.094880 -0.000001 0.000001 0.000001 0.054292 -0.868996 7.149712 0.095994 -1.153715 9.511942 0.007806 -0.329989 2.708817 0.000002 -0.000000 -0.000001 0.232283 -1.785679 14.822117 0.406490 -2.346817 19.650859 0.232870 -1.787889 14.840965 -0.000001 0.000000 -0.000002 0.350506 -2.183802 18.234454 0.611301 -2.855608 24.161238 0.430938 -2.414099 20.239293 -0.000002 -0.000001 0.000001 -2.925529 32.195630 25.608164 46.278500 10.075086 -5.145838 -28.957666 13.353679 -14.355183 -0.671046 -0.000001 0.000009 -0.000000 -0.000000 -0.000000 -30.140819 -0.775558 1.661461 47.107084 5.534316 -1.854573 -5.163392 0.447339 -1.930320 -1.772002 0.000023 0.000002 -0.000000 0.000003 0.000000 
-7.314129 182.008698 -3.153332 -26.693067 -61.826599 -29.003039 9.700160 -12.899014 -0.068468 3.745104 -1.753542 -0.981985 3.720187 -1.768804 -1.037437 7.504739 -1.504484 2.934072 -3.340087 -7.087891 3.580815 -0.000001 0.000000 -0.000000 -0.000001 0.000000 -0.000000 -0.000001 0.000000 -0.000000 1.035660 -8.425291 0.422828 -41.795246 -38.259451 -72.591162 -0.000004 -56.614608 -0.000013 46.296211 32.254059 -28.588457 0.020160 -0.527625 4.378671 0.003258 0.212218 -1.758840 0.000299 -0.064250 0.532382 0.000001 0.000001 -0.000003 -2.107832 4.876221 12.292411 4.685179 17.127446 1.425241 -0.579465 1.574997 2.538712 0.000000 -0.000002 0.000002 0.079662 -1.046480 8.705935 0.000002 -0.000006 -0.000006 0.032816 -0.672839 5.584480 0.000000 -0.000000 -0.000001 0.001205 0.129158 -1.065359 0.016200 0.473050 -3.923003 0.035144 0.696206 -5.779131 -0.000000 0.000001 -0.000003 0.395900 4.690364 -4.914561 0.021867 -3.371736 -6.176086 0.123062 1.298607 -10.826868 -0.000002 0.000000 0.000001 1.926034 35.094881 5.111714 -16.377463 6.633252 53.014665 0.000101 77.695082 -0.000106 35.763086 -24.786835 -31.793346 0.077681 -1.038557 8.554721 0.160711 -1.489248 12.317615 0.035591 -0.704105 5.787751 -0.000001 -0.000001 -0.000002 -2.032678 -12.088984 -7.927933 5.749307 -21.267908 -1.054429 -1.273757 0.137311 -2.094876 -0.000001 0.000000 0.000000 0.030493 -0.651826 5.356688 0.065584 -0.954751 7.859713 0.000229 -0.056085 0.460244 -0.000000 -0.000001 -0.000002 0.166900 -1.517292 12.553457 0.337604 -2.144285 17.892843 0.164158 -1.504944 12.449611 -0.000000 -0.000001 -0.000002 0.262207 -1.895083 15.753813 0.524517 -2.653943 22.355785 0.333512 -2.131579 17.783197 0.000000 -0.000000 -0.000002 -3.620808 32.768031 26.334262 45.716550 9.588786 -4.623047 -28.466611 13.038829 -14.152418 -0.720087 0.000000 -0.000008 0.000000 -0.000000 -0.000000 -29.122106 -0.560449 1.454073 45.101300 5.712896 -0.975559 -4.077833 0.345318 -1.497682 -1.735374 -0.000016 -0.000004 0.000000 0.000002 0.000000 
-6.656315 182.374039 -3.354472 -27.392081 -62.041798 -29.854135 9.320083 -12.500227 -1.142673 3.750280 -1.699719 0.059429 3.751753 -1.690045 0.002745 9.049810 -1.344961 2.179591 -3.639573 -6.845219 3.019142 -0.000000 0.000000 0.000000 -0.000000 0.000000 0.000000 -0.000000 0.000000 0.000000 1.025600 -8.404334 0.307064 -41.458675 -42.668462 -65.068118 -0.000020 -58.876620 -0.000021 47.627322 25.950701 -39.212215 0.000658 0.095330 -0.788900 0.009891 0.369667 -3.064707 0.000947 0.114389 -0.947914 -0.000002 0.000000 -0.000002 -2.107829 4.876222 12.292410 4.685180 17.127444 1.425244 -0.579470 1.574999 2.538712 0.000000 -0.000000 0.000003 0.008761 -0.347954 2.884527 0.002129 0.171540 -1.421581 0.015063 -0.456161 3.782726 -0.000001 0.000001 -0.000004 0.030902 0.652987 -5.416791 0.027194 0.612615 -5.083183 0.049503 0.825863 -6.860274 -0.000001 -0.000000 -0.000003 0.713071 5.100565 -8.630499 0.036574 -3.246707 -7.218425 0.140950 1.388846 -11.589583 -0.000002 -0.000000 0.000004 1.875508 33.094551 4.978323 -11.210114 13.736222 53.377409 0.000054 72.863065 -0.000048 36.108789 -24.801949 -35.304698 0.054547 -0.871050 7.166773 0.130852 -1.345279 11.110384 0.018267 -0.504715 4.145261 -0.000001 0.000000 -0.000002 -2.032680 -12.088987 -7.927932 5.749306 -21.267908 -1.054428 -1.273761 0.137313 -2.094875 -0.000002 0.000002 0.000000 0.017726 -0.497214 4.083473 0.048581 -0.822177 6.762663 0.001136 0.125869 -1.032906 -0.000000 0.000001 -0.000001 0.128777 -1.334694 11.021828 0.289099 -1.987894 16.547554 0.119584 -1.286576 10.619642 -0.000001 0.000000 -0.000002 0.210530 -1.701368 14.107002 0.459190 -2.489325 20.899749 0.263821 -1.900790 15.802503 -0.000002 -0.000001 0.000001 -3.791342 33.408091 26.865752 45.418552 9.136427 -4.872674 -28.292001 13.043558 -13.696683 -0.597877 -0.000001 0.000004 0.000000 -0.000000 0.000000 -28.492892 -0.279979 1.441775 43.685463 5.508063 -0.379113 -3.114016 0.246404 -0.892153 -1.326958 0.000027 0.000003 -0.000000 -0.000001 0.000000 
